<?xml version="1.0" encoding="UTF-8"?>
<svg version="1.1" xmlns="http://www.w3.org/2000/svg" width="606" height="225" >
<path d="M145.006,22.975c5.286,0.621,11.239-0.372,14.977-4.41c4.154-4.488,1.833-10.214-3.313-11.93 c-6.321-2.108-13.798-0.922-20.167,0.255c-8.177,1.51-16.468,4.403-23.523,8.846c-7.24,4.56-11.323,10.117-13.465,18.408 c-1.963,7.6,0.882,13.965,8.568,16.113c6.264,1.75,18.118,2.783,23.202-2.167c6.152-5.99-7.731-8.002-10.811-8.041 c-8.588-0.109-18.211,2.841-26.187,5.803c-8.245,3.063-16.101,7.392-21.828,14.206c-5.29,6.294-7.829,15.58-5.871,23.635 c1.407,5.787,6.725,8.669,12.145,9.736c12.508,2.463,28.275-3.221,38.311-10.534c2.904-2.116,6.708-5.691,4.768-9.563 c-3.177-6.34-14.9-4.835-19.999-2.818c-6.127,2.423-11.733,8.407-5.042,13.762c2.054,1.644,7.093-1.277,4.456-3.387 c-6.548-5.24,11.015-11.314,15.285-4.982c1.623,2.407-8.402,7.375-9.604,7.966c-8.611,4.239-31.214,11.883-34.7-2.455 c-2.35-9.664,3.391-19.3,10.776-24.946c7.25-5.542,16.466-8.316,25.235-10.338c4.823-1.113,9.755-2.127,14.72-1.56 c0.575,0.065,3.984,1.195,3.864,1.372c-1.014,1.492-6.077,1.003-7.641,1.026c-3.892,0.058-8.328-0.133-11.661-2.366 c-4.147-2.778-2.698-9.083-1.527-12.982c4.288-14.277,22.423-19.625,35.646-21.301c3.598-0.456,11.161-1.638,14.008,1.505 c2.261,2.496-1.08,5.915-3.391,6.571c-1.649,0.468-3.545,0.491-5.245,0.291C144.103,18.351,141.094,22.515,145.006,22.975 L145.006,22.975z"/>
<path d="M190.897,53.535c-4.354-4.35-10.06-7.438-16.004-8.931c-11.199-2.811-21.351,2.128-29.736,9.291 c-7.469,6.38-13.437,15.032-15.815,24.615c-1.021,4.112-1.385,11.529,4.224,12.146c4.962,0.546,10.473-2.361,14.787-4.403 c7.523-3.562,14.667-7.967,21.62-12.524c13.146-8.617,28.65-19.023,37.039-32.711c2.285-3.729,5.646-10.822,1.333-14.327 c-4.39-3.567-11.879,1.21-15.442,3.724c-8.483,5.985-14.773,15.062-19.52,24.138c-4.02,7.686-8.675,17.737-7.974,26.686 c1.442,18.405,28.388,4.692,36.374,0.465c6.587-3.487,16.616-7.689,20.939-14.234c2.47-3.74-1.213-5.419-4.532-5.429 c-6.833-0.019-12.984,4.257-15.345,10.638c-2.786,7.532,3.283,13.104,10.492,12.602c1.954-0.136,15.662-4.629,16.373-3.101 c1.267,2.725-1.87,7.605-3.069,9.94c-1.574,3.065-3.401,6.005-5.265,8.901c-9.786,15.208-21.142,29.54-32.973,43.196 c-5.059,5.838-10.273,11.625-16.026,16.793c-1.64,1.473-3.37,2.995-5.281,4.11c-1.858,1.084,0.056,0.992,0.012,0.197 c-0.307-5.576,4.082-12.114,6.642-16.737c5.156-9.311,11.297-18.083,17.667-26.594c15.372-20.541,33.027-38.424,53.221-54.208 c3.855-3.014,7.754-5.977,11.75-8.804c1.533-1.084,4.409-3.136,5.49-3.45c-4.781,1.389-2.104-3.28-3.005-1.554 c0.165-0.315-0.463,0.631-0.381,0.521c-0.592,0.794-1.263,1.532-1.924,2.267c-2.368,2.632-4.935,5.092-7.504,7.524 c-6.403,6.062-15.186,14.937-12.764,24.761c1.845,7.485,11.088,6.099,16.006,3.073c7.848-4.829,14.675-12.136,20.34-19.315 c3.22-4.08,9.817-12.317,6.078-17.776c-3.545-5.174-10.31-1.09-12.152,3.16c-2.687,6.197-2.097,14.722-0.002,20.985 c5.538,16.562,26.05-2.146,31.069-9.687c2.786-4.186,5.234-12.193-1.413-14.485c-5.599-1.931-7.756,3.825-5.466,8.056 c4.347,8.035,13.461,6.444,21.058,5.813c4.808-0.399,9.947-0.645,14.556,1.006c5.07,1.816,4.5,7.146,3.288,11.381 c-1.153,4.031-3.671,8.498-3.718,12.751c-0.053,4.783,5.87,3.155,8.479,1.904c9.015-4.321,17.246-11.293,25.106-17.348 c8.735-6.729,17.072-13.976,25.331-21.275c13.116-11.593,25.556-24.792,39.874-34.926c0.587-0.415,1.18-0.778,1.831-1.081 c-1.837,0.854-2.376-1.974-2.805-0.603c-0.888,2.844-2.776,5.511-4.322,8.018c-5.204,8.439-11.235,16.392-17.1,24.375 c-5.934,8.079-11.936,16.12-17.48,24.475c-3.438,5.179-7.503,10.883-8.732,17.098c-0.96,4.854,3.549,6.956,7.553,5.055 c5.838-2.772,9.621-10.836,12.407-16.219c5.838-11.28,15.875-37.757-3.456-42.522c-7.504-1.85-13.505,3.219-14.922,10.373 c-1.111,5.609,1.804,10.775,6.174,14.067c5.972,4.499,14.214,5.298,21.42,5.238c12.109-0.1,24.089-3.95,35.193-8.455 c10.331-4.191,20.497-9.338,29.983-15.207c1-0.619,1.994-1.247,2.979-1.889c0.234-0.152,1.848-1.179,1.093-0.725 c-1.329,0.797-3.412-2.745-3.918-2.028c-0.481,0.682-0.958,1.365-1.418,2.061c-3.676,5.566-5.382,11.751-8.122,17.751 c-3.982,8.724-10.347,16.472-16.868,23.417c-2.998,3.194-6.213,6.278-9.816,8.788c-0.482,0.336-0.997,0.602-1.532,0.845 c2.07-0.941,2.104,2.105,2.468,0.243c0.353-1.805,1.766-3.696,2.691-5.233c1.703-2.826-4.205-2.998-5.563-0.744 c-1.301,2.157-3.684,5.417-2.998,8.146c0.66,2.628,4.278,1.816,6.01,1.16c7.383-2.802,13.961-11.452,18.827-17.244 c7.172-8.534,11.669-17.429,15.82-27.639c1.191-2.93,2.679-5.766,4.445-8.389c0.764-1.133,2.059-2.336,1.86-3.804 c-0.076-0.57-0.737-1.075-1.24-1.233c-3.367-1.062-8.117,3.463-10.734,4.999c-11.29,6.625-23.395,12.469-35.829,16.559 c-10.35,3.403-21.76,5.569-32.577,3.296c-5.916-1.243-11.712-4.923-12.622-11.28c-0.479-3.345,0.978-8.581,4.875-9.031 c4.889-0.565,8.22,5.018,9.349,8.909c2.393,8.251-2.298,18.472-5.657,25.799c-1.8,3.923-3.898,7.734-6.348,11.289 c-0.92,1.334-1.937,2.596-3.03,3.792c-0.409,0.448-0.867,0.822-1.344,1.195c-0.719,0.563,1.108,0.533,0.834,0.179 c-2.311-2.987,5.063-12.818,6.495-15.056c10.694-16.721,23.569-31.942,34.422-48.561c2.079-3.183,7.555-9.47,6.606-13.732 c-0.956-4.292-7.54-0.112-9.221,1.077c-14.522,10.279-27.15,23.757-40.453,35.516c-8.229,7.273-16.581,14.419-25.283,21.122 c-4.822,3.714-9.768,7.284-14.767,10.756c-2.827,1.964-5.91,4.419-9.208,5.561c-0.926,0.321,1.059-0.106,1.122,0.765 c-0.05-0.685,0.151-1.407,0.31-2.065c0.563-2.35,1.521-4.633,2.276-6.926c2.142-6.504,3.931-14.229-3.318-18.097 c-8.802-4.697-18.853-0.733-28.095-1.315c-3.453-0.217-6.385-2.637-7.322-5.919c-0.133-0.465-0.133-0.865-0.089-1.337 c-0.938,0.335-1.876,0.67-2.814,1.005c0.403,0.258,0.764,0.566,1.083,0.926c1.192,1.241,0.951,3.034,0.476,4.531 c-2.224,7.007-10.505,14.317-17.337,16.64c-6.427,2.185-6.275-12.893-6.041-16.292c0.12-1.737,0.41-3.489,0.933-5.151 c0.207-0.658,0.506-1.274,0.819-1.886c0.441-0.861,0.921-0.483-0.03-0.552c3.214,0.232-0.411,7.024-0.966,8.042 c-4.679,8.58-12.617,16.18-20.297,22.064c-2.671,2.046-6.617,4.829-9.003,1.047c-2.854-4.523,2.03-11.669,4.571-15.009 c4.676-6.147,11.265-10.661,16.14-16.676c2.198-2.711,2.021-6.514-2.56-5.184c-5.91,1.717-11.561,7.22-16.305,10.838 c-20.043,15.286-37.689,32.371-53.329,52.163c-6.758,8.553-13.059,17.469-18.815,26.726c-3.922,6.306-7.91,12.991-10.083,20.141 c-0.854,2.81-1.872,8.18,2.447,8.649c4.094,0.445,7.842-2.811,10.741-5.267c12.539-10.624,23.041-24.095,33.112-36.985 c9.569-12.246,20.53-25.476,26.246-40.109c2.192-5.613,0.965-10.46-5.787-10.049c-5.28,0.321-13.375,5.489-18.326,2.748 c-7.308-4.046,2.129-15.609,7.692-13.822c-0.686-0.22-0.085-1.185-0.517-0.531c-0.61,0.924-1.528,1.629-2.374,2.32 c-4.376,3.573-9.51,6.275-14.445,8.973c-5.192,2.839-10.502,5.552-16.125,7.436c-3.208,1.075-7.133,2.207-10.444,0.96 c-6.54-2.462-1.473-15.585-0.046-19.515c4.107-11.31,10.351-22.221,19.354-30.337c2.384-2.149,12.212-10.164,10.691-1.979 c-1.255,6.754-7.305,12.481-12.049,16.975c-6.618,6.269-13.953,11.795-21.426,16.996c-8.188,5.698-16.757,10.983-25.783,15.256 c-2.751,1.302-5.581,2.503-8.563,3.154c-0.403,0.088-1.371-0.042-0.985,0.181c-0.712-0.411-0.784-3.591-0.75-4.646 c0.408-12.836,12.172-24.985,22.569-30.944c6.587-3.776,14.041-2.981,20.669,0.095c1.958,0.909,3.774,2.156,5.499,3.444 c0.49,0.366,2.688,2.316,2.177,1.806C187.524,58.051,192.996,55.632,190.897,53.535L190.897,53.535z"/>
<path d="M457.656,41.308c0.884-0.298-1.853,0.382-2.514,0.445c-2.346,0.224-4.537-0.389-6.239-2.04 c-3.918-3.8-1.605-11.558,1.723-14.953c7.596-7.749,21.944-8.888,31.966-6.954c5.052,0.975,10.096,3.261,13.272,7.443 c4.343,5.719,2.861,13.208,1.266,19.607c-1.643,6.583-6.82,19.829-15.735,15.48c-1.544-0.753-6.185,1.637-5.455,1.993 c7.63,3.722,17.071-0.418,21.809-6.723c4.998-6.652,7.949-17.77,6.469-26.021c-1.077-6.001-5.88-10.146-11.263-12.375 c-12.104-5.009-27.469-2.677-39.13,2.455c-4.593,2.021-9.549,5.188-11.577,9.985c-2.494,5.895-0.653,13.22,6.112,14.373 c3.716,0.633,7.782-0.138,11.318-1.332C463.596,41.37,459.887,40.555,457.656,41.308L457.656,41.308z"/>
<path d="M526.079,72.906c2.555-6.532,1.114-13.343-6.805-14.133c-14.078-1.405-28.519,10.055-31.146,23.582 c-0.931,4.794-0.21,10.513,3.205,14.207c3.561,3.852,9.817,1.649,13.631-0.486c8.844-4.952,16.75-13.813,18.736-23.777 c-1.322,0.739-2.646,1.479-3.968,2.218c0.002,0,0.005,0.001,0.008,0.001c-0.618-0.391-1.235-0.782-1.853-1.172 c2.186,8.701,7.855,13.551,17.329,13.176c11.369-0.45,22.38-6.16,32.432-10.987c5.704-2.739,12.976-5.954,16.727-11.352 c1.902-2.738,1.549-5.414-0.031-8.175c-2.615-4.568-9.776-1.742-13.285-0.034c-13.515,6.577-27.74,26.413-17.388,41.025 c4.992,7.047,15.164,9.036,23.168,9.698c7.493,0.62,15.985,0.287,23.063-2.498c3.726-1.466,0.391-4.191-2.473-3.064 c-5.588,2.199-12.634,2.054-18.5,1.665c-7.754-0.514-16.504-2.682-20.875-9.681c-5.156-8.254,0.123-19.785,5.694-26.278 c1.67-1.947,12.75-12.586,15.263-8.377c1.686,2.825,0.457,5.006-1.903,6.979c-7.958,6.648-19.034,10.502-28.51,14.291 c-6.577,2.63-16.45,5.352-21.961-0.79c-1.896-2.114-2.297-4.534-2.955-7.151c-0.207-0.825-1.134-1.066-1.852-1.172 c-0.003,0-0.006-0.001-0.008-0.001c-1.427-0.211-3.655,0.647-3.969,2.218c-1.367,6.862-5.517,11.874-10.662,16.604 c-1.91,1.756-7.728,7.093-10.527,4.664c-2.813-2.439-3.166-7.076-2.929-10.489c0.809-11.631,11.179-19.858,22.273-20.935 c6.086-0.591,6.092,5.872,4.576,9.746C519.424,75.402,525.23,75.076,526.079,72.906L526.079,72.906z"/>
<path d="M27.034,138.676c-5.781-0.201-12.251-0.093-17.57,2.411c-3.815,1.796-5.262,6.358-0.875,8.227 c4.77,2.032,10.942,1.43,15.979,1.438c11.998,0.018,23.991-0.271,35.989-0.168c33.871,0.291,67.557-8.311,100.734-14.234 c54.417-9.717,109.219-17.368,164.495-19.748c30.815-1.327,61.701-0.752,92.489,0.998c19.363,1.101,38.878,2.618,57.946,6.305 c5.092,0.985,10.203,2.204,15.061,4.045c2.149,0.814,4.81,1.867,5.972,3.833c0.381,0.644-0.311,1.312-1.362,1.879 c-2.895,1.562-6.266,2.229-9.551,2.876c-18.374,3.618-37.887,2.949-56.486,3.448c-21.302,0.572-43.802,2.058-64.927-1.588 c-1.754-0.303-3.756-0.676-5.242-1.714c-0.357-0.25-0.005,0.116-0.53,0.526c0.127-0.099,1.422-0.358,1.966-0.441 c6.802-1.035,14.031-0.191,20.773,0.857c8.224,1.279,24.937,4.712,24.595,14.876c-0.306,9.063-6.4,17.354-12.775,23.496 c-14.13,13.612-34.185,20.283-52.884,24.542c-38.072,8.67-78.274,7.732-116.942,4.733c-23.726-1.84-47.351-4.893-70.854-8.597 c-2.701-0.425-5.96,3.368-2.068,3.981c48.821,7.695,98.7,12.956,148.159,9.58c26.75-1.826,54.643-6.245,78.804-18.486 c12.314-6.239,24.374-15.165,30.855-27.677c1.794-3.465,3.151-7.323,3.503-11.228c0.806-8.923-7.409-13.327-14.813-15.96 c-7.281-2.59-15.174-3.757-22.854-4.298c-5.602-0.394-11.996-0.728-17.361,1.247c-3.183,1.171-5.021,4.307-1.535,6.408 c4.532,2.732,11.173,2.805,16.258,3.23c24.429,2.039,49.286,0.853,73.738-0.022c14.931-0.534,30.425-0.414,45.057-3.963 c4.018-0.975,12.806-3.171,12.361-8.762c-0.434-5.464-11.982-7.782-15.774-8.782c-15.678-4.136-32.128-5.662-48.232-7.017 c-28.09-2.364-56.387-3.226-84.567-3.025c-57.353,0.409-114.439,7.208-170.938,16.69c-21.442,3.598-42.807,7.633-64.208,11.462 c-14.895,2.665-29.921,5.494-45.046,6.445c-8.715,0.548-17.508,0.038-26.236,0.071c-8.919,0.034-17.846,0.322-26.765,0.157 c-1.725-0.032-8.887,0.378-9.687-1.462c-1.051-2.418,11.442-2.672,13.283-2.608C27.615,142.749,30.962,138.813,27.034,138.676 L27.034,138.676z"/>
<path d="M261.302,203.11c3.778,4.889,7.556,9.777,11.333,14.667c1.149,1.487,6.735-0.486,5.396-2.22 c-3.778-4.889-7.556-9.777-11.333-14.667C265.549,199.403,259.963,201.376,261.302,203.11L261.302,203.11z"/>
<path d="M271.781,201.727c1.948,1.736,3.832,3.548,5.657,5.412c2.15,2.194,5.628,5.174,6.331,8.304 c0.634,2.823,6.436,1.298,5.796-1.553c-0.814-3.629-4.365-6.808-6.836-9.362c-2.091-2.161-4.265-4.254-6.509-6.255 C274.186,196.461,269.213,199.439,271.781,201.727L271.781,201.727z"/>
</svg>